<?xml version="1.0" encoding="utf-8"?>
<!-- Generator: Adobe Illustrator 22.0.1, SVG Export Plug-In . SVG Version: 6.00 Build 0)  -->
<svg version="1.1" id="Layer_2" xmlns="http://www.w3.org/2000/svg" xmlns:xlink="http://www.w3.org/1999/xlink" x="0px" y="0px"
	 viewBox="0 0 152 152" style="enable-background:new 0 0 152 152;" xml:space="preserve">
<style type="text/css">
	.st0{fill:#7FF4E6;}
</style>
<path class="st0" d="M137.6,36.6C131.1,25.1,122,16.2,110,9.8C98.1,3.3,84.2,0.1,68.3,0.1H20.6C12,0.1,5,7.1,5,15.7v120.6
	C5,145,12,152,20.6,152h47.6c15.9,0,29.8-3.3,41.7-10c11.9-6.7,21.1-15.8,27.6-27.4c6.5-11.6,9.7-24.6,9.7-39
	C147.2,61,144,48,137.6,36.6z M129.9,82.9c-0.8,10.4-3.7,19.8-8.8,28.2c-5,8.4-11.8,14.9-20.4,19.7c-8.5,4.8-18.2,7.2-29.2,7.2
	c-11.6,0-21.9-2.6-31-7.9c-9-5.3-16.1-12.7-21.1-22.2c-5-9.5-7.5-20.3-7.5-32.4c0-12.1,2.5-22.9,7.5-32.4c5-9.5,12-16.9,21-22.2
	c9-5.3,19.3-7.9,30.9-7.9c13.9,0,25.7,3.5,35.3,10.4c9.6,7,16.2,16.4,19.8,28.4h-12.7c-3.1-8.2-8.4-14.9-15.9-20
	c-7.5-5.1-16.3-7.7-26.5-7.7c-8.8,0-16.8,2.1-23.9,6.3c-7.1,4.2-12.7,10.2-16.8,17.9c-4.1,7.8-6.1,16.8-6.1,27.1
	c0,10.6,2.1,19.7,6.2,27.5c4.1,7.8,9.8,13.7,17.1,17.9c7.2,4.2,15.5,6.3,24.8,6.3c8.2,0,15.8-1.8,22.6-5.5c6.8-3.7,12.4-9,16.6-15.9
	c4.2-7,6.7-15.1,7.4-24.5H98.5c-1,8.1-3.9,14.6-9,19.4c-6.3,5.9-14.8,8.8-25.5,8.8h-6.9c-2.5,0-4.5-2-4.5-4.5V46.2
	c0-2.5,2-4.5,4.5-4.5H64c10.7,0,19.2,2.9,25.5,8.8c5.6,5.2,8.5,12.5,9.2,21.6h31.2V82.9z M47.5,53.4v45.3c-5,0-9.1-10.2-9.1-22.7
	C38.4,63.5,42.5,53.4,47.5,53.4z"/>
</svg>
