<?xml version="1.0" encoding="utf-8" standalone="yes"?>
<svg xmlns="http://www.w3.org/2000/svg" width="5" height="10" fill="none">
<path d="M4.655 5.348a.687.687 0 0 1-.19.476L.795 9.58a.277.277 0 0 1-.365.014.252.252 0 0 1-.014-.35l3.672-3.756c.073-.07.073-.196 0-.28L.415 1.452c-.102-.098-.088-.252.014-.35.102-.098.263-.084.365.014L4.45 4.872c.131.14.204.308.204.476Z" fill="white"/>
<path fill-rule="evenodd" d="m4.712 6.065-3.68 3.763a.622.622 0 0 1-.822.032L.2 9.85l-.01-.009a.597.597 0 0 1-.033-.828l.006-.006 3.579-3.66-3.57-3.651c-.265-.26-.195-.638.018-.843.26-.25.632-.189.843.014l.008.007 3.662 3.76c.18.194.297.443.297.713 0 .251-.088.505-.282.712l-.006.005ZM.415 1.452l3.672 3.756c.073.084.073.21 0 .28L.415 9.243a.252.252 0 0 0 .014.35.277.277 0 0 0 .365-.013l3.672-3.756a.687.687 0 0 0 .19-.476.704.704 0 0 0-.205-.476L.794 1.116C.692 1.018.53 1.004.429 1.102c-.102.098-.116.252-.014.35Z" clip-rule="evenodd" fill="white"/>
</svg>
