<?xml version="1.0" encoding="utf-8" standalone="yes"?>  

<svg display="none" xmlns="http://www.w3.org/2000/svg" xmlns:xlink="http://www.w3.org/1999/xlink">
    <symbol id="phone" viewBox="0 -5 28 28" ><path d="M4.7 15.6c2.3 2.8 5.1 4.9 8.3 6.5 1.2.6 2.8 1.3 4.6 1.4h.3c1.2 0 2.2-.4 3-1.3.3-.3.6-.6.9-1 .2-.2.5-.4.7-.7 1-1.1 1-2.4 0-3.5l-2.9-2.9c-.5-.5-1.1-.8-1.7-.8-.6 0-1.2.3-1.7.8l-1.7 1.7c-.2-.1-.3-.2-.5-.3-.2-.1-.4-.2-.5-.3-1.6-1-3-2.3-4.4-4-.7-.9-1.2-1.6-1.5-2.4.4-.3.9-.8 1.3-1.2l.4-.4c.5-.5.8-1.1.8-1.7s-.3-1.3-.8-1.8L7.9 2.2c-.2-.1-.4-.3-.5-.5l-1-1C5.9.3 5.3 0 4.7 0 4.1 0 3.5.3 3 .8L1.1 2.6C.5 3.2.1 4 0 5c-.1 1.2.1 2.4.7 3.9.8 2.3 2.1 4.4 4 6.7zM1.2 5.1c.1-.7.3-1.2.8-1.7l1.8-1.8c.3-.3.6-.4.9-.4.3 0 .6.1.9.4l1 1c.1.1.3.3.4.5l1.4 1.4c.3.3.5.6.5.9s-.1.6-.4.9c-.2.2-.3.4-.5.5-.4.5-.9.9-1.3 1.3-.5.4-.4.8-.3 1.1.4.9.9 1.8 1.7 2.8 1.5 1.8 3 3.2 4.7 4.3l.6.3c.2.1.4.2.5.3h.1c.2.1.3.1.5.1.4 0 .6-.2.7-.3l1.8-1.8c.3-.3.6-.4.9-.4.4 0 .7.2.9.4l2.9 2.9c.6.6.6 1.2 0 1.8l-.6.6c-.3.3-.7.7-1 1.1-.6.6-1.2.9-2.1.9h-.3c-1.6-.1-3.1-.7-4.2-1.3-3-1.5-5.7-3.5-7.9-6.2-1.8-2.2-3-4.2-3.8-6.4-.5-1.2-.7-2.3-.6-3.2z" fill="currentColor" transform="translate(1, 0)"/></symbol>
    <symbol id="email" viewBox="0 -4 28 28" ><path d="m16.5 12 6.2-5.3v10.6L16.5 12zm-7.9.9 2.2 1.9c.3.3.8.5 1.3.5s.9-.2 1.3-.5l2.2-1.9 6.6 5.6H2l6.6-5.6zM2 5.4h20l-9.6 8.4c-.1.1-.2.1-.4.1-.1 0-.3-.1-.4-.1L2 5.4zm-.6 1.2L7.5 12l-6.2 5.3.1-10.7zM23 4.2c-.3-.1-.6-.2-.9-.2H1.9c-.3 0-.6.1-.9.2-.6.3-1 .9-1 1.7V18c0 1 .8 1.9 1.9 1.9h20.3c1 0 1.9-.8 1.9-1.9V5.9c-.1-.8-.5-1.4-1.1-1.7z" fill="currentColor" transform="translate(0, 4)"/>
    </symbol>
    <symbol id="arrow-up" viewBox="0 0 64 64">
      <path
        d="M52.8,37.1C47.1,31.4,41.4,25.7,35.7,20c-0.8-0.8-1.6-1.6-2.4-2.4c-0.8-0.8-2.1-0.8-2.8,0c-5.7,5.7-11.3,11.3-17,17  c-0.8,0.8-1.6,1.6-2.4,2.4c-1.8,1.8,1,4.7,2.8,2.8c5.7-5.7,11.3-11.3,17-17c0.3-0.3,0.7-0.7,1-1c5.2,5.2,10.4,10.4,15.7,15.7  c0.8,0.8,1.6,1.6,2.4,2.4C51.8,41.7,54.6,38.9,52.8,37.1z"
        fill="currentColor" transform="translate(0, 10)" />
    </symbol>
    <symbol id="linked-in" viewBox="0 0 16 16"><path d="M2.2 4.6c-1.2 0-2-.7-2-1.8S1.1.9 2.3.9c1.2 0 2 .8 2.1 1.9-.1 1.1-1 1.8-2.2 1.8zm.1-3.2c-1 0-1.6.6-1.6 1.4 0 .8.6 1.3 1.5 1.3s1.6-.6 1.6-1.3c0-.8-.6-1.4-1.5-1.4zm1.2 13.7H1c-.1 0-.3-.1-.3-.3V5.5c0-.1.1-.3.3-.3h2.6c.1 0 .3.1.3.3v9.3c-.1.2-.2.3-.4.3zm-2.3-.5h2.1V5.7H1.2v8.9zm14.3.5h-3.1c-.1 0-.3-.1-.3-.3V9.9c0-.9-.7-1.6-1.6-1.6S9 9 9 9.9v4.9c0 .1-.1.3-.3.3H5.6c-.1 0-.3-.1-.3-.3V5.5c0-.1.1-.3.3-.3h3.1c.2 0 .3.1.3.3v1.6c0 .1-.1.3-.3.3s-.2-.2-.2-.3V5.7H5.9v8.8h2.6V9.9c0-1.1.9-2.1 2.1-2.1s2.1.9 2.1 2.1v4.7h2.6V9.1c0-1.9-1.5-3.4-3.4-3.4-.7 0-1.4.2-2 .6-.1.1-.3 0-.4-.1-.1 0-.1-.2 0-.3.7-.5 1.5-.7 2.3-.7 2.1 0 3.9 1.7 3.9 3.9v5.7c0 .2-.1.3-.2.3z" fill="currentColor" transform="translate(0, 1)"/>
    </symbol>
    <symbol id="go-on" viewBox="0 0 35 35">
    <path d="m17.5 5.999-.707.707 5.293 5.293H1v1h21.086l-5.294 5.295.707.707L24 12.499l-6.5-6.5z" fill="currentColor" transform="translate(5, 15)" />
    </symbol>
</svg>
